<svg width="858" height="965" viewBox="0 0 858 965" fill="none" xmlns="http://www.w3.org/2000/svg">
<path fill-rule="evenodd" clip-rule="evenodd" d="M469 10.718C444.248 -3.57265 413.752 -3.57265 389 10.718L40.75 211.78C15.998 226.071 0.75 252.481 0.75 281.062V683.186C0.75 687.769 1.1416 692.295 1.90234 696.725L233.075 338.364C256.094 302.681 295.653 281.124 338.116 281.124H409L95.6113 784.142L131.405 804.808L449 281.124H588L243.389 869.461L389 953.53C413.752 967.821 444.248 967.821 469 953.53L817.25 752.468C842.002 738.177 857.25 711.767 857.25 683.186V281.062C857.25 252.481 842.002 226.071 817.25 211.78L469 10.718ZM562 834.124L685 762.124L511 490.124L432 623.124L562 834.124ZM786.849 701.868L721 739.124L538 444.124L607 328.124L797 618.124V684.461C797 691.668 793.122 698.318 786.849 701.868Z" fill="#D9D9D9"/>
</svg>
